<?xml version="1.0" encoding="UTF-8"?>
<!DOCTYPE svg PUBLIC "-//W3C//DTD SVG 1.1//EN" "http://www.w3.org/Graphics/SVG/1.1/DTD/svg11.dtd">
<!-- Creator: CorelDRAW -->
<svg xmlns="http://www.w3.org/2000/svg" xml:space="preserve" width="6.82666in" height="6.82666in" style="shape-rendering:geometricPrecision; text-rendering:geometricPrecision; image-rendering:optimizeQuality; fill-rule:evenodd; clip-rule:evenodd"
viewBox="0 0 6.82666 6.82666"
 xmlns:xlink="http://www.w3.org/1999/xlink">
 <defs>
  <style type="text/css">
   <![CDATA[
    .fil1 {fill:none}
    .fil0 {fill:#424242}
    .fil2 {fill:#FFFFFE;fill-rule:nonzero}
   ]]>
  </style>
 </defs>
 <rect class="fil0" width="6.82666" height="6.82666"/>
 <g id="Layer_x0020_1">
  <metadata id="CorelCorpID_0Corel-Layer"/>
  <path class="fil1" d="M4.61637 3.92741c0.347323,-0.33548 -0.165642,-0.383378 0.53176,-1.08078l-0.697035 -0.697035 -0.440402 0.440402c-0.337083,0.075063 -0.849024,-0.0376654 -0.963299,0.064685 -0.142016,0.127193 -0.207323,0.621945 -0.207323,0.829264"/>
  <g id="_391990808">
   <path id="_391991816" class="fil2" d="M3.79885 3.79076l-0.62239 -0.606083 0.000204724 -0.000208661c-0.0414724,-0.0403898 -0.107843,-0.0395079 -0.148232,0.0019685l-7.48031e-005 7.48031e-005 -1.82005 1.82006 -7.87402e-006 -7.87402e-006c-0.040937,0.040937 -0.040937,0.107311 0,0.148248 0.00175591,0.00175591 0.00355906,0.00342913 0.00540157,0.0050315l0.116484 0.117642 2.41886 0 0.701587 -0.676839 0.000299213 0.000102362c0.0416693,-0.0401969 0.0428583,-0.106559 0.00266535,-0.148224 -0.0026063,-0.00269291 -0.00532283,-0.00522047 -0.00812992,-0.00758268l-0.065185 -0.0635315 -0.149299 0.148831 -0.384642 0.381413c-0.0777756,0.077122 -0.182327,0.120402 -0.291874,0.120402 -0.109724,0 -0.214374,-0.0430787 -0.292008,-0.120713 -0.0776496,-0.0776535 -0.120764,-0.182374 -0.120764,-0.292134 0,-0.109598 0.0432756,-0.214185 0.120583,-0.291874l0.423949 -0.426031 0.112622 -0.110539z"/>
   <path id="_391991984" class="fil2" d="M3.3276 4.41069c-0.111295,0.12152 -0.107358,0.308988 0.00790157,0.425406 0.112831,0.113969 0.296102,0.122791 0.420075,0.016752l0.000433071 -0.000377953 0.00253937 -0.00220079 0.00243701 -0.00215354 0.000417323 -0.000377953 0.00250787 -0.00227559 0.000318898 -0.000295276 0.00257874 -0.00240551 0.000212598 -0.000200787 0.00266142 -0.00254724 0.000110236 -0.000102362 0.00274016 -0.00268504 0.867201 -0.860736c0.156,-0.158618 0.151886,-0.26472 0.14698,-0.390185 -0.00500394,-0.127921 -0.0111496,-0.284933 0.358654,-0.654736l7.87402e-006 7.87402e-006c0.0409331,-0.0409331 0.0409331,-0.107311 0,-0.148244l-0.685008 -0.684988 7.87402e-006 -7.87402e-006c-0.0409331,-0.040937 -0.107311,-0.040937 -0.148244,0l-0.00057874 0.000594488 -0.410331 0.410327c-0.13974,0.0252717 -0.314614,0.0194646 -0.471567,0.0142441 -0.215709,-0.00717323 -0.40215,-0.013374 -0.492472,0.0675197 -0.0760591,0.068122 -0.13087,0.201953 -0.168091,0.350835 -0.0350472,0.140177 -0.0566811,0.298 -0.0658189,0.421504l0.250146 -0.250138c0.0802953,-0.0833858 0.213547,-0.0845039 0.296378,-0.00384252l0.0753898 0.0734173 -0.000204724 0.000208661 0.623815 0.607472 -0.188705 0.185209c-0.141126,0.141823 -0.298657,0.28865 -0.432492,0.435004z"/>
   <path id="_391991768" class="fil2" d="M0.958157 5.38231c-0.0578898,0 -0.104827,0.046937 -0.104827,0.104827 0,0.0578937 0.046937,0.104831 0.104827,0.104831l3.81686 0c0.0578898,0 0.104827,-0.046937 0.104827,-0.104831 0,-0.0578898 -0.046937,-0.104827 -0.104827,-0.104827l-3.81686 0z"/>
   <path id="_391991144" class="fil2" d="M5.41983 2.9068l-1.11919 -1.11919 -7.87402e-006 3.93701e-006c-0.0409331,-0.0409331 -0.0409331,-0.107311 0,-0.148244l0.000598425 -0.00057874 0.37339 -0.373394 -7.87402e-006 -7.87402e-006c0.0409331,-0.0409331 0.107311,-0.0409331 0.148244,0l0.000582677 0.000598425 1.11919 1.11919 7.87402e-006 -7.87402e-006c0.0409331,0.040937 0.0409331,0.107311 0,0.148248l-0.000594488 0.00057874 -0.373394 0.37339 7.87402e-006 7.87402e-006c-0.0409331,0.040937 -0.107311,0.040937 -0.148244,0l-0.00057874 -0.000594488z"/>
  </g>
 </g>
 <rect class="fil1" width="6.82666" height="6.82666"/>
</svg>
