<?xml version="1.0" encoding="utf-8"?>
<!-- Generator: Adobe Illustrator 24.1.2, SVG Export Plug-In . SVG Version: 6.00 Build 0)  -->
<svg version="1.1" id="Design_here" xmlns="http://www.w3.org/2000/svg" xmlns:xlink="http://www.w3.org/1999/xlink" x="0px"
	 y="0px" viewBox="0 0 24 24" style="enable-background:new 0 0 24 24;" xml:space="preserve">
<g>
	<path d="M12,1.875C6.417,1.875,1.875,6.417,1.875,12S6.417,22.125,12,22.125S22.125,17.583,22.125,12S17.583,1.875,12,1.875z
		 M12,19.875c-4.343,0-7.875-3.533-7.875-7.875S7.657,4.125,12,4.125S19.875,7.658,19.875,12S16.343,19.875,12,19.875z"/>
	<polygon points="14.828,7.757 12,10.586 9.172,7.757 7.758,9.171 10.586,12 7.758,14.829 9.172,16.243 12,13.414 14.828,16.243 
		16.242,14.829 13.414,12 16.242,9.171 	"/>
</g>
</svg>
