<?xml version="1.0" encoding="utf-8"?>
<!-- Generator: Adobe Illustrator 26.0.1, SVG Export Plug-In . SVG Version: 6.00 Build 0)  -->
<svg version="1.1" id="Ebene_1" xmlns="http://www.w3.org/2000/svg" xmlns:xlink="http://www.w3.org/1999/xlink" x="0px" y="0px"
	 viewBox="0 0 48 48" style="enable-background:new 0 0 48 48;" xml:space="preserve">
<style type="text/css">
	.st0{fill:#646464;}
	.st1{fill:#56A8E1;}
</style>
<g>
	<path class="st0" d="M29,34c-0.6,0-1,0.4-1,1v4c0,1.7-1.3,3-3,3H11c-1.7,0-3-1.3-3-3V9c0-1.7,1.3-3,3-3h14c1.7,0,3,1.3,3,3v4
		c0,0.6,0.4,1,1,1s1-0.4,1-1V9c0-2.8-2.2-5-5-5H11C8.2,4,6,6.2,6,9v30c0,2.8,2.2,5,5,5h14c2.8,0,5-2.2,5-5v-4C30,34.4,29.6,34,29,34
		z"/>
	<path class="st1" d="M41.7,23.3l-6-6c-0.4-0.4-1-0.4-1.4,0c-0.4,0.4-0.4,1,0,1.4l4.3,4.3H17c-0.6,0-1,0.4-1,1s0.4,1,1,1h21.6
		l-4.3,4.3c-0.4,0.4-0.4,1,0,1.4c0.4,0.4,1,0.4,1.4,0c0,0,0,0,0,0l6-6C42.1,24.3,42.1,23.7,41.7,23.3C41.7,23.3,41.7,23.3,41.7,23.3
		z"/>
</g>
</svg>
