<?xml version="1.0" encoding="utf-8"?>
<!-- Generator: Adobe Illustrator 26.0.1, SVG Export Plug-In . SVG Version: 6.00 Build 0)  -->
<svg version="1.1" id="Ebene_1" xmlns="http://www.w3.org/2000/svg" xmlns:xlink="http://www.w3.org/1999/xlink" x="0px" y="0px"
	 viewBox="0 0 44 44" style="enable-background:new 0 0 44 44;" xml:space="preserve">
<style type="text/css">
	.st0{fill:#606060;}
</style>
<g id="pencil">
	<g>
		<path class="st0" d="M44,8.5c0-1.2-0.5-2.4-1.4-3.3l-3.9-3.9c-0.9-0.9-2-1.4-3.3-1.4s-2.4,0.5-3.3,1.4l-0.9,0.9
			c-0.4,0.4-0.4,1,0,1.4s1,0.4,1.4,0l0.9-0.9c1-1,2.7-1,3.7,0l3.9,3.9C41.7,7.1,42,7.8,42,8.5s-0.3,1.4-0.8,1.9l-3.9,3.9
			c-0.4,0.4-0.4,1,0,1.4l0.6,0.6c0.1,0.1,0.1,0.2,0.1,0.3c0,0.3-0.5,0.5-0.7,0.3L27.1,6.7C27,6.6,27,6.5,27,6.4
			c0-0.3,0.5-0.5,0.7-0.3l6.6,6.6c0.4,0.4,1,0.4,1.4,0s0.4-1,0-1.4l-6.6-6.6C28.7,4.3,28.1,4,27.4,4C26.1,4,25,5.1,25,6.4
			C25,7,25.2,7.6,25.6,8L3.3,30.3c-0.4,0.4-0.4,1,0,1.4l6,6C9.5,37.9,9.7,38,10,38s0.5-0.1,0.7-0.3c0.4-0.4,0.4-1,0-1.4L5.4,31
			L27,9.4l7.6,7.6L12.5,39.1l-8,2l-1.6-1.6L4,35.2c0.1-0.5-0.2-1.1-0.7-1.2c-0.5-0.1-1.1,0.2-1.2,0.7l-2,8c-0.1,0.3,0,0.7,0.3,1
			C0.5,43.9,0.7,44,1,44c0.1,0,0.2,0,0.2,0l12-3c0.2,0,0.3-0.1,0.5-0.3L36,18.4c0.4,0.4,1,0.6,1.6,0.6c1.3,0,2.4-1.1,2.4-2.4
			c0-0.6-0.2-1.1-0.6-1.6l3.2-3.2C43.5,10.9,44,9.7,44,8.5z"/>
		<path class="st0" d="M27.7,13.3c-0.4-0.4-1-0.4-1.4,0l-17,17c-0.4,0.4-0.4,1,0,1.4C9.5,31.9,9.7,32,10,32s0.5-0.1,0.7-0.3l17-17
			C28.1,14.3,28.1,13.7,27.7,13.3z"/>
		<path class="st0" d="M13,35c0.3,0,0.5-0.1,0.7-0.3l17-17c0.4-0.4,0.4-1,0-1.4s-1-0.4-1.4,0l-17,17c-0.4,0.4-0.4,1,0,1.4
			C12.5,34.9,12.7,35,13,35z"/>
	</g>
</g>
</svg>
