<?xml version="1.0" encoding="utf-8"?>
<!-- Generator: Adobe Illustrator 24.1.2, SVG Export Plug-In . SVG Version: 6.00 Build 0)  -->
<svg version="1.1" id="Design_here" xmlns="http://www.w3.org/2000/svg" xmlns:xlink="http://www.w3.org/1999/xlink" x="0px"
	 y="0px" viewBox="0 0 24 24" style="enable-background:new 0 0 24 24;" xml:space="preserve">
<g>
	<path d="M12,1.875C6.417,1.875,1.875,6.417,1.875,12S6.417,22.125,12,22.125S22.125,17.583,22.125,12S17.583,1.875,12,1.875z
		 M12,19.875c-4.342,0-7.875-3.533-7.875-7.875S7.658,4.125,12,4.125S19.875,7.658,19.875,12S16.342,19.875,12,19.875z"/>
	<polygon points="13,7 11,7 11,11 7,11 7,13 11,13 11,17 13,17 13,13 17,13 17,11 13,11 	"/>
</g>
</svg>
