<?xml version="1.0" encoding="utf-8"?>
<!-- Generator: Adobe Illustrator 25.4.0, SVG Export Plug-In . SVG Version: 6.00 Build 0)  -->
<svg version="1.1" id="Ebene_1" xmlns="http://www.w3.org/2000/svg" xmlns:xlink="http://www.w3.org/1999/xlink" x="0px" y="0px"
	 viewBox="0 0 55.9 56.1" style="enable-background:new 0 0 55.9 56.1;" xml:space="preserve">
<style type="text/css">
	.st0{fill:#606060;}
	.st1{fill:#56A8E1;}
</style>
<g id="opinion">
	<path class="st0" d="M-10.4,27.5c0-1.9-0.6-3.4-1.7-4.5c-1.5-1.5-3.4-1.5-3.9-1.5h-17c1.2-4.4,3.5-16.1-4.7-20.6
		C-40-0.4-41.9-0.3-43.3,1c-1.4,1.3-2.1,3.3-1.7,5.1c0.6,2.8,0.6,8.5,0.6,10.3c-1,1-5,4.5-7.7,6.8v-0.7c0-0.7-0.5-1.2-1.2-1.2h-18.2
		c-0.3,0-0.7,0.1-0.9,0.4c-0.2,0.2-0.3,0.6-0.3,0.9l2.6,32.4c0,0.6,0.6,1.1,1.2,1.1h15.6c0.7,0,1.2-0.5,1.2-1.2v-1.3l4.4,1.1
		c0.1,0,0.2,0,0.3,0h23.6c2-0.2,5.5-1.4,6-4.9c0.1-1,0-2-0.3-3c1.4-0.8,2.4-2,2.9-3.4c0.4-1.3,0.3-2.6-0.3-3.8c1.2-1,2-2.3,2.3-3.7
		c0.2-1.2,0-2.5-0.8-3.7C-11.1,30.8-10.4,28.9-10.4,27.5z M-54.5,53.7h-13.3l-2.4-30h15.7V53.7z M-16.2,30.4h-8.7v2.4h8.4
		c0.8,0.9,1.1,1.7,1,2.5c-0.2,1.1-0.8,2-1.9,2.6h-7.1v2.4h6.8c0.4,0.7,0.5,1.5,0.2,2.2c-0.4,1.2-1.4,1.9-2.3,2.3h-5.1v2.4h4.5
		c0.2,0.6,0.3,1.3,0.2,2c-0.4,2.6-3.7,2.9-3.7,2.9h-23.3l-4.9-1.2V26.3c1.9-1.6,9.4-7.9,9.9-8.9c0.1-0.2,0.1-0.3,0.1-0.5
		c0-0.1,0.1-7.7-0.7-11.3c-0.2-1,0.2-2.1,0.9-2.8C-41.6,2.5-41,2-39,3c8,4.4,3.7,17.8,3.2,19.3c-0.1,0.4-0.1,0.8,0.2,1.1
		c0.2,0.3,0.6,0.5,1,0.5h18.7c0.1,0,1.3,0,2.2,0.9c0.6,0.6,1,1.5,1,2.7C-12.8,29-14.8,30-16.2,30.4z M53.1,1.1
		c0-0.6-0.6-1.1-1.2-1.1H36.3c-0.7,0-1.2,0.5-1.2,1.2v1.3l-4.4-1.1c-0.1,0-0.2,0-0.3,0H6.8c-2,0.1-5.5,1.4-6,4.9c-0.1,1,0,2,0.3,3
		c-1.4,0.8-2.4,2-2.9,3.4c-0.4,1.3-0.3,2.6,0.3,3.8c-1.2,1-2,2.3-2.3,3.7c-0.2,1.2,0,2.5,0.8,3.7c-2.9,1.4-3.6,3.2-3.6,4.7
		c0,1.9,0.6,3.4,1.7,4.5c1.5,1.5,3.4,1.5,3.9,1.5h17.1c-1.2,4.4-3.5,16.1,4.7,20.6c1.1,0.6,2.1,0.9,3.1,0.9s1.8-0.3,2.6-1
		c1.4-1.3,2.1-3.3,1.7-5.1c-0.6-2.8-0.6-8.5-0.6-10.3c1-1,5-4.5,7.7-6.8v0.7c0,0.7,0.5,1.2,1.2,1.2h18.2c0.3,0,0.7-0.1,0.9-0.4
		s0.3-0.6,0.3-0.9L53.1,1.1z M35.1,29.7c-1.9,1.6-9.4,7.9-9.9,8.9c-0.1,0.2-0.1,0.3-0.1,0.5c0,0.1-0.1,7.7,0.7,11.3
		c0.2,1-0.2,2.1-0.9,2.8C24.6,53.4,24,54,22,53c-7.9-4.4-3.6-17.8-3.1-19.3c0.1-0.4,0.1-0.8-0.2-1.1c-0.2-0.3-0.6-0.5-1-0.5H-1.1
		c-0.1,0-1.3,0-2.2-0.8c-0.6-0.6-1-1.5-1-2.7c0-1.5,1.8-2.4,3.4-3h8.7v-2.4h-8.4c-0.8-0.9-1.1-1.7-1-2.5c0.2-1.1,0.8-2,1.9-2.6h7.1
		v-2.4H0.7c-0.4-0.7-0.5-1.5-0.2-2.3c0.4-1.2,1.4-1.9,2.3-2.3h5.1V8.7H3.4c-0.2-0.6-0.3-1.3-0.2-2c0.4-2.6,3.7-2.9,3.7-2.9h23.3
		L35.1,5V29.7L35.1,29.7z M37.5,32.4v-30h13.3l2.4,30H37.5L37.5,32.4z"/>
	<path class="st1" d="M53.2,32.4H37.5v-30h13.3L53.2,32.4z M-70.2,23.7l2.4,30h13.3v-30C-54.5,23.7-70.2,23.7-70.2,23.7z"/>
</g>
<g id="Layer_1">
</g>
</svg>
