<?xml version="1.0" encoding="utf-8"?>
<!-- Generator: Adobe Illustrator 26.0.1, SVG Export Plug-In . SVG Version: 6.00 Build 0)  -->
<svg version="1.1" id="Ebene_1" xmlns="http://www.w3.org/2000/svg" xmlns:xlink="http://www.w3.org/1999/xlink" x="0px" y="0px"
	 viewBox="0 0 64 28" style="enable-background:new 0 0 64 28;" xml:space="preserve">
<style type="text/css">
	.st0{fill:#606060;}
	.st1{fill:#56A8E1;}
</style>
<g id="opinion">
	<path class="st0" d="M62.9,10.6c0-1.9-0.6-3.4-1.7-4.5c-1.5-1.5-3.4-1.5-3.9-1.5H40.3c1.2-4.4,3.5-16.1-4.7-20.6
		c-2.3-1.3-4.2-1.2-5.6,0.1c-1.4,1.3-2.1,3.3-1.7,5.1c0.6,2.8,0.6,8.5,0.6,10.3c-1,1-5,4.5-7.7,6.8V5.6c0-0.7-0.5-1.2-1.2-1.2H1.8
		c-0.3,0-0.7,0.1-0.9,0.4C0.7,5,0.6,5.4,0.6,5.7l2.6,32.4c0,0.6,0.6,1.1,1.2,1.1H20c0.7,0,1.2-0.5,1.2-1.2v-1.3l4.4,1.1
		c0.1,0,0.2,0,0.3,0l23.6,0c2-0.2,5.5-1.4,6-4.9c0.1-1,0-2-0.3-3c1.4-0.8,2.4-2,2.9-3.4c0.4-1.3,0.3-2.6-0.3-3.8
		c1.2-1,2-2.3,2.3-3.7c0.2-1.2,0-2.5-0.8-3.7C62.2,13.9,62.9,12,62.9,10.6z M18.8,36.8H5.5l-2.4-30h15.7V36.8z M57.1,13.5h-8.7v2.4
		h8.4c0.8,0.9,1.1,1.7,1,2.5c-0.2,1.1-0.8,2-1.9,2.6h-7.1v2.4h6.8c0.4,0.7,0.5,1.5,0.2,2.2c-0.4,1.2-1.4,1.9-2.3,2.3h-5.1v2.4h4.5
		c0.2,0.6,0.3,1.3,0.2,2c-0.4,2.6-3.7,2.9-3.7,2.9l-23.3,0l-4.9-1.2V9.4c1.9-1.6,9.4-7.9,9.9-8.9c0.1-0.2,0.1-0.3,0.1-0.5
		c0-0.1,0.1-7.7-0.7-11.3c-0.2-1,0.2-2.1,0.9-2.8c0.3-0.3,0.9-0.8,2.9,0.2C42.3-9.5,38,3.9,37.5,5.4c-0.1,0.4-0.1,0.8,0.2,1.1
		c0.2,0.3,0.6,0.5,1,0.5h18.7c0.1,0,1.3,0,2.2,0.9c0.6,0.6,1,1.5,1,2.7C60.5,12.1,58.5,13.1,57.1,13.5z M126.4-15.8
		c0-0.6-0.6-1.1-1.2-1.1h-15.6c-0.7,0-1.2,0.5-1.2,1.2v1.3l-4.4-1.1c-0.1,0-0.2,0-0.3,0l-23.6,0c-2,0.1-5.5,1.4-6,4.9
		c-0.1,1,0,2,0.3,3c-1.4,0.8-2.4,2-2.9,3.4c-0.4,1.3-0.3,2.6,0.3,3.8c-1.2,1-2,2.3-2.3,3.7c-0.2,1.2,0,2.5,0.8,3.7
		c-2.9,1.4-3.6,3.2-3.6,4.7c0,1.9,0.6,3.4,1.7,4.5c1.5,1.5,3.4,1.5,3.9,1.5h17.1c-1.2,4.4-3.5,16.1,4.7,20.6
		c1.1,0.6,2.1,0.9,3.1,0.9c1,0,1.8-0.3,2.6-1c1.4-1.3,2.1-3.3,1.7-5.1c-0.6-2.8-0.6-8.5-0.6-10.3c1-1,5-4.5,7.7-6.8v0.7
		c0,0.7,0.5,1.2,1.2,1.2h18.2c0.3,0,0.7-0.1,0.9-0.4s0.3-0.6,0.3-0.9L126.4-15.8z M108.4,12.8c-1.9,1.6-9.4,7.9-9.9,8.9
		c-0.1,0.2-0.1,0.3-0.1,0.5c0,0.1-0.1,7.7,0.7,11.3c0.2,1-0.2,2.1-0.9,2.8c-0.3,0.2-0.9,0.8-2.9-0.2c-7.9-4.4-3.6-17.8-3.1-19.3
		c0.1-0.4,0.1-0.8-0.2-1.1c-0.2-0.3-0.6-0.5-1-0.5H72.2c-0.1,0-1.3,0-2.2-0.8c-0.6-0.6-1-1.5-1-2.7c0-1.5,1.8-2.4,3.4-3h8.7V6.3
		h-8.4c-0.8-0.9-1.1-1.7-1-2.5c0.2-1.1,0.8-2,1.9-2.6h7.1v-2.4H74c-0.4-0.7-0.5-1.5-0.2-2.3c0.4-1.2,1.4-1.9,2.3-2.3h5.1v-2.4h-4.5
		c-0.2-0.6-0.3-1.3-0.2-2c0.4-2.6,3.7-2.9,3.7-2.9h23.3l4.9,1.2L108.4,12.8L108.4,12.8z M110.8,15.5v-30h13.3l2.4,30L110.8,15.5
		L110.8,15.5z"/>
	<path class="st1" d="M126.5,15.5h-15.7v-30h13.3L126.5,15.5z M3.1,6.8l2.4,30h13.3v-30H3.1z"/>
</g>
<g id="Layer_1">
</g>
</svg>
