<?xml version="1.0" encoding="utf-8"?>
<!-- Generator: Adobe Illustrator 26.0.1, SVG Export Plug-In . SVG Version: 6.00 Build 0)  -->
<svg version="1.1" id="Ebene_1" xmlns="http://www.w3.org/2000/svg" xmlns:xlink="http://www.w3.org/1999/xlink" x="0px" y="0px"
	 viewBox="0 0 128 128" style="enable-background:new 0 0 128 128;" xml:space="preserve">
<style type="text/css">
	.st0{fill:#606060;}
</style>
<path class="st0" d="M111.3,81.9c-3.3-1.6-7.2-3.3-11.3-5c-5.5-2.3-11.6-4.8-17.2-7.9c2.2-2.9,3.9-6.3,4.9-10
	c3.8-3.8,7.7-10.5,7.7-16.9c0-3.3-0.3-5.7-1.9-7.2c-0.2-0.2-0.5-0.4-0.8-0.6l-0.1-9.6c0-0.4,0.1-9.6-6.9-16.6
	c-5-5.1-12.3-7.7-21.6-7.7c-9.3,0-16.6,2.6-21.6,7.7c-6.9,7-6.9,16.2-6.9,16.5l-0.1,9.7c-0.3,0.2-0.6,0.4-0.8,0.6
	c-1.5,1.5-1.9,4-1.9,7.2c0,6.5,3.9,13.1,7.7,16.9c1,3.7,2.7,7.1,4.9,10c-5.6,3-11.7,5.6-17.2,7.9c-4.1,1.7-8.1,3.4-11.3,5
	C6.9,86.9,0,104.2,0,116.7v1.7l1.5,0.7c17.9,8,52.4,8.6,62.5,8.6s44.6-0.6,62.5-8.6l1.5-0.7v-1.7C128,104.2,121.1,86.9,111.3,81.9z
	 M45.1,57.1L45,56.3l-0.6-0.5c-3.3-3-6.6-8.7-6.6-13.7c0-2.2,0.2-3.1,0.3-3.5l2.3,0l0.2-14.1c0-0.1,0-7.6,5.5-13
	c4-4.1,10.1-6.1,17.9-6.1c7.9,0,13.9,2,17.9,6.1c5.4,5.5,5.5,13,5.5,13.1l0.2,11.5l0.1,2.5l2.3,0c0.1,0.4,0.3,1.3,0.3,3.5
	c0,5-3.3,10.7-6.6,13.7l-0.5,0.5l-0.2,0.7c-1,3.8-2.7,7.2-5,9.9c-13.1,9.3-23.6,3.3-27.3,0.5C48,64.7,46.2,61.1,45.1,57.1z"/>
<g id="Layer_1">
</g>
</svg>
