<?xml version="1.0" encoding="UTF-8"?>
<!DOCTYPE svg PUBLIC "-//W3C//DTD SVG 1.1//EN" "http://www.w3.org/Graphics/SVG/1.1/DTD/svg11.dtd">
<!-- Creator: CorelDRAW -->
<svg xmlns="http://www.w3.org/2000/svg" xml:space="preserve" width="6.82666in" height="6.82666in" style="shape-rendering:geometricPrecision; text-rendering:geometricPrecision; image-rendering:optimizeQuality; fill-rule:evenodd; clip-rule:evenodd"
viewBox="0 0 6.82666 6.82666"
 xmlns:xlink="http://www.w3.org/1999/xlink">
 <defs>
  <style type="text/css">
   <![CDATA[
    .fil2 {fill:none}
    .fil0 {fill:#424242}
    .fil1 {fill:#FFFFFE}
   ]]>
  </style>
 </defs>
 <rect class="fil0" width="6.82666" height="6.82666"/>
 <g id="Layer_x0020_1">
  <metadata id="CorelCorpID_0Corel-Layer"/>
  <path class="fil1" d="M2.0091 2.25775l2.80846 0c0.31789,0 0.606815,0.129976 0.816209,0.33937 0.209394,0.209394 0.33937,0.498319 0.33937,0.816213 0,0.317894 -0.129972,0.606815 -0.33937,0.816209 -0.209394,0.209398 -0.498315,0.33937 -0.816209,0.33937l-2.80846 0c-0.317894,0 -0.606815,-0.129972 -0.816209,-0.33937 -0.209398,-0.209394 -0.33937,-0.498315 -0.33937,-0.816209 0,-0.317894 0.129976,-0.606819 0.33937,-0.816213 0.209394,-0.209394 0.498319,-0.33937 0.816209,-0.33937zm0.203307 1.55326l-0.28426 -0.79537 0.17426 0 0.20111 0.588705 0.194815 -0.588705 0.17037 0 -0.284815 0.79537 -0.17148 0zm0.50574 -0.392776c0,-0.0811142 0.0120354,-0.149075 0.0362953,-0.204075 0.0181496,-0.0403701 0.0427756,-0.0768543 0.0740748,-0.109075 0.0312953,-0.0320354 0.0655551,-0.0559252 0.102776,-0.0714803 0.0496299,-0.0211142 0.106669,-0.0314843 0.171484,-0.0314843 0.11722,0 0.210925,0.0362992 0.281295,0.109075 0.0703701,0.0725945 0.105555,0.173705 0.105555,0.30315 0,0.128516 -0.035,0.228886 -0.104815,0.30148 -0.069815,0.0724055 -0.16315,0.108705 -0.279815,0.108705 -0.118335,0 -0.212406,-0.0361142 -0.28222,-0.10815 -0.069815,-0.0722205 -0.10463,-0.171665 -0.10463,-0.298146zm0.16537 -0.00537402c0,0.09 0.0209252,0.158335 0.0624055,0.204815 0.0416654,0.0464843 0.0944449,0.0696299 0.15852,0.0696299 0.0638898,0 0.11648,-0.0229606 0.157591,-0.0692598 0.0409291,-0.0461102 0.0614843,-0.115185 0.0614843,-0.207406 0,-0.0911102 -0.02,-0.159075 -0.059815,-0.204075 -0.04,-0.044815 -0.0931496,-0.0672205 -0.15926,-0.0672205 -0.0662953,0 -0.11963,0.0227756 -0.160185,0.0681457 -0.0403701,0.0453701 -0.0607402,0.113705 -0.0607402,0.20537zm0.91037 0.39815l0 -0.66074 -0.235925 0 0 -0.13463 0.632035 0 0 0.13463 -0.23537 0 0 0.66074 -0.16074 0zm0.499815 0l0 -0.79537 0.58963 0 0 0.13463 -0.429075 0 0 0.176295 0.39926 0 0 0.13389 -0.39926 0 0 0.21648 0.44426 0 0 0.134075 -0.604815 0z"/>
 </g>
 <rect class="fil2" width="6.82666" height="6.82666"/>
</svg>
