<svg width="901" height="894" viewBox="0 0 901 894" fill="none" xmlns="http://www.w3.org/2000/svg">
<path d="M521.1 55.5542C521.1 53.3542 521.1 51.5543 521.1 49.8543C521 45.1543 519.9 40.8542 517.8 36.6542C515.2 31.3542 510.9 28.0542 505.5 26.0542C503.8 25.4542 502.1 25.4543 500.4 26.4543C499.9 28.2543 499.6 30.2542 499.5 32.1542C499.3 39.2542 499 46.3543 499 53.4543C499 55.8543 499.5 58.2542 500.1 60.5542C501.3 65.0542 504.2 68.1542 508.7 69.6542C512.5 70.9542 516.4 71.2542 520.3 71.4542C525.5 71.6542 530.8 71.4542 536 71.5542C539.2 71.6542 542.3 71.7542 545.5 71.9542C552.5 72.4542 559.4 73.0542 566.4 73.5542C571.9 73.9542 577.5 74.2542 583 74.9542C585.5 75.2542 587.9 76.1542 590.3 76.7542C600.1 79.3542 609.9 81.9543 619.5 85.1543C626.9 87.6543 634.1 90.7542 641 94.5542C643.2 95.7542 645.4 97.0542 647.6 98.2542C656.8 103.054 664.7 109.554 672.1 116.754C676.7 121.254 681.1 125.954 685.5 130.654C686.5 131.754 687.4 133.054 688.4 134.254C692.9 140.154 697 146.354 700.4 152.954C702.7 157.454 705.4 161.654 707.9 165.954C708.6 167.154 709.2 168.454 709.7 169.754C711.7 175.054 714.3 180.154 717.4 184.854C719.1 187.554 720.9 190.154 722.5 192.854C728 201.754 735.9 207.954 745.4 212.254C751.6 215.054 758.1 216.754 764.7 218.254C771.6 219.754 778.6 220.754 785.7 221.054C790.5 221.254 795.3 221.654 800.1 221.954C801.9 222.054 803.8 221.954 805.8 221.954C806.4 221.254 807.1 220.554 807.7 219.854C809.3 218.054 811.2 216.954 813.7 216.954C815.4 216.954 817.2 216.754 818.9 216.254C822.6 215.354 826.1 215.754 829.4 217.254C831.1 218.054 832.7 218.054 834.4 217.554C838.5 216.354 842.5 215.054 846.3 212.954C849.9 210.954 852.8 208.154 854.6 204.354C856.5 200.454 856.1 199.454 852 197.654C848.9 196.254 845.6 195.654 842.2 195.154C840.5 194.854 838.7 194.754 837 194.454C832.6 193.654 830.4 189.754 832 185.654C833 183.054 834.9 181.054 837.2 179.554C838.4 178.854 839.7 178.154 841.1 177.754C852.6 174.854 863.2 176.854 872.6 184.154C879.1 189.154 881.4 196.154 881.1 204.154C880.9 209.054 879.6 213.654 877.4 217.954C873 226.454 867.5 234.154 859.9 240.054C855.1 243.754 849.8 246.454 844.2 248.754C840.3 250.354 840.3 250.354 837.6 254.354C838.5 258.054 839.4 261.854 840.2 265.654C842.4 276.554 844.6 287.454 846.6 298.354C848.7 310.054 851.1 321.654 853.5 333.354C855.5 343.054 857.3 352.854 859.2 362.554C860.7 370.154 862.3 377.754 863.8 385.354C866 396.554 868.2 407.854 870.4 419.054C874.8 440.954 879 462.954 883.6 484.754C885.9 496.054 888.4 507.354 891.4 518.554C891.7 519.554 892 520.654 892.3 521.654C893.5 522.254 894.8 521.954 895.9 522.054C903.3 522.254 910.7 522.254 918.1 522.654C922.3 522.854 926.4 522.754 930.5 522.154C933 521.754 935.3 523.154 936.2 525.654C936.7 526.954 936.9 528.354 937.1 529.754C937.6 533.954 937.2 538.054 936.2 542.154C934.2 551.054 932 559.954 929 568.654C924.7 580.954 918 591.854 909.2 601.454C900.7 610.654 890.9 618.254 880.1 624.554C879.6 624.854 879.1 625.054 878.7 625.354C873.2 629.354 866.9 631.954 860.6 634.454C858.3 635.354 855.9 636.154 853.4 636.754C846.7 638.354 840 639.954 833.2 640.754C832.6 640.854 831.9 640.954 831.2 640.954C827.8 641.254 824.4 641.354 821.1 641.754C814.8 642.554 808.5 642.454 802.1 642.154C791 641.754 780.2 639.954 769.7 636.354C760.2 633.154 751 629.054 742.6 623.454C731.2 615.854 721.7 606.254 714.2 594.854C711.8 591.154 709.5 587.254 707.2 583.454C706.3 581.954 705.5 580.354 704.9 578.754C703.5 575.054 701.6 571.654 699.4 568.354C694.8 561.454 692.2 553.754 690.5 545.654C690.3 544.954 690.2 544.154 690.2 543.354C690.1 541.354 689.8 539.454 689.2 537.554C688.5 535.254 688.5 532.854 689 530.454C689.7 526.454 691.2 525.054 695.2 524.554C697.7 524.254 700.2 524.054 702.7 523.754C706.3 523.354 709.9 522.954 713.4 522.654C716.3 522.454 719.3 522.354 722.2 522.254C723.3 522.254 724.4 522.154 725.4 522.154C726.4 521.054 726.4 519.654 726.7 518.354C730.3 503.954 733.9 489.554 737.6 475.254C742.1 458.054 747.1 440.954 753.2 424.254C756.9 414.154 759.5 403.854 762.6 393.654C769.8 369.354 777 344.954 784.1 320.554C786.5 312.354 788.4 304.054 790.7 295.954C794.5 282.454 799.1 269.154 803.7 255.854C804.1 254.754 804.7 253.654 804.5 252.354C802.2 252.054 799.9 251.754 797.7 251.554C790.1 250.754 782.6 249.254 775.2 247.354C756.5 242.454 739.1 234.354 723 223.854C715.7 219.154 709.2 213.554 703.7 206.854C700.6 203.054 697.1 199.554 693.8 195.954C689.9 191.654 686 187.454 682.2 183.054C678.1 178.354 673.9 173.854 669.3 169.654C663.7 164.554 658.2 159.454 652.6 154.354C648.6 150.654 644.2 147.454 639.5 144.654C631.7 140.054 624.1 135.154 616.7 129.954C605.5 122.054 593.1 116.854 579.7 114.054C574.5 112.954 569.2 112.254 563.8 111.954C555.7 111.354 547.7 111.454 539.6 111.554C539.1 111.554 538.5 111.554 538 111.554C531.7 112.354 525.4 112.254 519 112.254C515.7 112.254 512.5 112.754 509.3 113.654C507.8 114.054 507 114.854 506.8 116.354C506.7 117.254 506.5 118.054 506.4 118.954C505.8 123.154 505.3 127.354 504.7 131.554C504.1 136.554 503.4 141.554 503 146.454C502.6 151.154 502.2 155.754 502 160.454C501.9 163.954 502.2 167.454 502.4 170.954C502.5 172.354 503 173.654 504.2 174.654C511.8 180.854 516.1 189.254 519.4 198.254C520.2 200.654 520.9 203.054 521.6 205.454C523.3 211.454 522.9 217.254 520.9 223.154C519.2 228.154 516.8 232.754 514.5 237.454C513 240.454 511.5 243.554 510 246.554C507.8 250.954 506.8 255.554 506.4 260.454C505.7 269.954 504.9 279.354 504.1 288.854C503.5 295.654 503.5 302.354 504.1 309.154C504.6 314.654 504.9 320.254 505.1 325.854C505.4 333.954 506 341.954 507.1 349.954C507.9 356.354 508.8 362.754 509.5 369.054C509.9 372.454 510.7 375.654 512.1 378.854C515.1 385.554 518.1 392.154 521 398.854C522.8 403.054 524.4 407.354 526 411.654C528.9 419.454 530.1 427.454 530 435.754C530 440.554 530 445.354 529.8 450.154C529.5 458.054 528.1 465.754 525.6 473.254C524.3 477.154 522.5 480.954 520.1 484.354C519.1 485.754 518.2 487.254 517.1 488.654C513.4 493.554 510.8 499.054 508.9 504.954C507.3 509.754 505.8 514.554 504.3 519.254C502.9 523.554 502.3 527.954 501.7 532.354C500.8 539.154 500.3 546.054 500.2 552.854C500.1 557.754 499.8 562.654 499.5 567.554C499 575.254 499.6 582.854 500.5 590.354C500.9 593.554 501.5 596.854 501.5 600.154C501.6 605.654 503.8 610.254 506.7 614.654C510.7 620.654 515 626.354 519.6 631.954C522.7 635.654 525.6 639.454 528.6 643.154C529.7 644.554 530.7 645.954 531.6 647.454C533.9 651.354 534.1 655.354 532.4 659.654C529.5 666.954 524.8 672.854 519.7 678.554C519.1 679.254 518.2 679.854 517.4 680.354C509.9 685.254 506.3 692.454 505.3 701.154C504.6 707.354 504.7 713.554 505 719.754C505.5 730.254 506.6 740.654 507.9 751.054C508.4 754.754 509.1 758.354 510.4 761.854C511.3 764.454 512.5 766.854 514.8 768.554C516.1 769.554 517 770.954 518.2 772.054C521.2 774.654 524.2 777.154 527.5 779.254C528.5 779.854 529.6 780.454 530.7 780.854C540.6 784.954 549.9 790.154 558.3 796.954C559 797.554 559.7 798.054 560.4 798.554C570.6 805.354 579.1 813.954 586.7 823.354C590.8 828.354 594.6 833.554 597.8 839.154C602.3 847.154 604.9 855.754 606.1 864.854C607 872.054 607.1 879.154 606.5 886.354C606.4 887.354 606.5 888.354 606.5 889.254C606.4 889.954 606.3 890.754 606.1 891.454C605.9 891.854 605.4 892.354 604.9 892.454C604.1 892.654 603.2 892.554 602.3 892.654C584 893.354 565.6 893.254 547.3 893.254C495.4 893.354 443.4 893.554 391.5 893.554C373.5 893.554 355.5 893.254 337.5 892.954C332 892.854 326.6 892.554 321.1 892.354C320.5 892.354 319.8 892.154 319.1 892.054C318.6 890.854 318.8 889.654 318.8 888.454C319.1 877.654 321 867.054 323.5 856.454C326.2 845.254 331.1 835.154 338.3 826.154C341.5 822.154 344.9 818.354 348.3 814.454C350.4 811.954 352.6 809.554 354.9 807.154C357.2 804.754 359.5 802.154 362.1 800.054C375 789.354 389.5 781.454 405.4 776.254C406.7 775.854 408.2 775.654 409.5 775.254C412.7 774.454 415.8 773.554 418.4 771.454C420.4 769.854 422.3 768.254 424.1 766.554C426.3 764.554 427.7 762.154 428.2 759.254C429.1 754.054 430.5 749.054 430.7 743.754C430.9 739.854 431 735.954 431 731.954C430.9 725.254 430.7 718.654 430.5 711.954C430.3 705.354 429 698.954 426.6 692.854C424.9 688.654 422.6 684.854 419.3 681.654C417.8 680.254 416.3 678.754 414.8 677.354C410.5 673.354 406.4 669.154 402.7 664.554C401.9 663.554 401.1 662.454 400.4 661.354C398.9 658.754 398.6 655.954 399.7 653.154C400.3 651.654 401 650.154 401.9 648.754C405.1 643.654 408.8 638.954 413 634.654C416.7 630.954 420.3 627.154 424 623.454C427.8 619.554 431.4 615.454 434.4 610.854C438.6 604.354 441.2 597.254 443 589.754C444.4 584.154 445 578.354 445.6 572.654C446.4 564.054 447.2 555.454 447.9 546.854C448.2 542.654 448.3 538.354 448.3 534.154C448.3 531.054 447.5 528.154 446.7 525.154C445.2 519.554 443.7 513.954 442.1 508.454C441.2 505.254 440.1 501.954 438.8 498.854C435.7 491.554 433.1 483.954 430.7 476.454C429.5 472.654 428.1 468.854 426.5 465.154C423.4 458.054 421.7 450.654 421.6 442.954C421.5 439.554 421.5 436.154 421.5 432.854C421.5 428.754 422.1 424.754 423 420.854C425 412.854 427.7 405.154 431.8 398.054C434.4 393.554 436.9 388.954 439.7 384.454C443.5 378.354 446.2 371.854 447.8 364.854C450.3 353.854 451.7 342.754 451.8 331.454C451.9 324.954 452.3 318.354 452.4 311.854C452.5 305.554 452.6 299.154 452.3 292.854C451.8 282.954 451.1 273.054 450.3 263.154C449.9 258.754 449.4 254.254 448.3 249.854C447.1 245.054 445.6 240.254 443.1 235.854C441.5 233.154 440.1 230.254 439 227.354C436.4 220.754 436 214.054 437.6 207.154C438.5 203.254 439.7 199.354 441.5 195.754C441.9 194.854 442.3 193.954 442.7 193.054C445.8 185.954 450 179.654 456 174.654C456.3 174.354 456.6 174.054 457 173.854C458 173.154 458.3 172.254 458.5 171.054C459 167.454 459.6 163.954 460.2 160.354C461.2 153.754 462.3 147.254 463.3 140.654C463.5 139.054 463.7 137.354 463.7 135.754C463.7 128.554 463.7 121.354 463.6 114.154C463.6 113.354 463.5 112.654 463.4 111.754C462.7 111.354 462.1 110.954 461.4 110.654C456.5 108.454 451.3 107.054 446 106.254C439.2 105.154 432.4 104.454 425.5 104.854C421.5 105.154 417.5 105.554 413.5 106.154C403.9 107.554 394.4 109.654 385.2 112.754C377.3 115.354 370 119.254 362.8 123.454C358.3 126.154 353.7 128.754 349.1 131.154C343.1 134.354 337.3 137.854 331.8 141.654C322.5 148.154 313.1 154.454 303.8 161.054C298.5 164.854 293.4 168.954 288.3 173.054C283 177.354 277.5 181.554 271.9 185.454C267.4 188.554 263 191.754 258.6 195.054C247.6 203.554 235.7 210.254 222.9 215.354C213.9 218.954 204.9 222.554 195.8 225.954C183.9 230.454 171.6 233.354 159.1 235.054C158.9 235.054 158.7 235.154 158.3 235.254C157.5 236.454 156.7 237.954 155.8 239.254C154.9 240.554 153.8 241.854 152.6 243.254C152.8 243.854 153 244.554 153.2 245.354C155.4 252.754 157.6 260.154 159.7 267.654C162.5 277.654 164.5 287.854 166.6 297.954C169.3 310.554 172.3 323.054 175 335.654C177.1 345.054 178.9 354.454 181 363.854C183.2 373.854 185.5 383.854 187.6 393.854C189.2 401.654 190.6 409.454 192.2 417.254C194.3 427.454 196.7 437.754 198.8 447.954C201.8 462.354 204.7 476.754 207.4 491.254C208.5 496.954 208.9 502.754 209.7 508.454C209.8 509.554 210 510.554 210.2 511.854C211 511.954 211.8 512.054 212.5 512.154C218.5 512.454 224.5 512.654 230.5 512.954C231.5 512.954 232.5 513.154 233.4 513.254C234.9 513.454 236.1 514.054 237.1 515.154C237.3 515.454 237.5 515.754 237.7 515.854C239.8 517.154 240.2 518.954 239.8 521.254C239 526.854 238.5 532.554 236.8 537.954C234.8 544.354 232 550.354 228.3 555.954C227 557.954 225.8 560.054 224.7 562.154C221.4 568.954 217.3 575.254 213.2 581.554C210.6 585.454 208.1 589.454 205.2 593.154C199.1 600.854 191.6 606.954 183.5 612.354C179.3 615.154 174.7 617.054 170 618.854C163 621.454 155.9 623.354 148.6 624.954C144 626.054 139.4 626.954 134.8 627.654C132 628.154 129.2 628.354 126.3 628.554C117.3 629.154 108.4 628.454 99.6 627.054C95.1 626.354 90.5 625.654 86.1 624.754C83.6 624.254 81 623.454 78.6 622.454C69.1 618.554 59.8 614.154 51.6 607.854C48.8 605.754 46 603.754 43.1 601.754C37.5 597.854 32.9 592.854 28.9 587.354C26.9 584.654 24.8 581.954 22.6 579.354C19.7 575.954 17.1 572.354 14.9 568.454C13.5 565.954 12.1 563.454 10.7 561.054C7.1 554.854 5.1 548.054 4.1 540.954C3.6 537.254 3 533.654 1.9 530.054C0.8 526.554 0.1 522.854 0 519.154C0 517.754 0.1 516.354 0.3 514.954C0.6 513.654 1.4 512.554 2.8 512.254C5.3 511.654 7.9 511.054 10.5 510.754C16.5 510.054 22.4 509.454 28.4 508.854C29.2 508.754 29.9 508.654 30.7 508.554C30.9 507.954 31.2 507.554 31.4 507.054C34.4 495.654 38.4 484.554 42.7 473.654C46.7 463.554 49.8 453.254 52.8 442.954C55.7 433.154 59.1 423.454 61.9 413.554C66.2 398.654 71 383.954 76 369.354C78.9 360.754 81.4 352.054 84.2 343.454C86.6 336.154 89.2 329.054 91.7 321.854C95.4 310.854 99 299.954 102.6 288.954C105.8 279.454 109.6 270.154 113.2 260.854C115.7 254.254 118 247.554 120.3 240.854C120.5 240.254 120.5 239.654 120.6 238.954C118.3 238.654 116.2 238.454 114 238.154C108.7 237.454 103.6 235.754 98.7 233.754C93.7 231.654 89.9 228.154 86.8 223.854C85.8 222.454 85.2 220.754 84.8 219.054C83.4 214.054 83.1 208.954 83 203.854C83 199.554 83.2 195.354 83.5 191.154C83.6 189.654 84 188.054 84.7 186.754C89.8 176.654 98 171.154 109.4 170.854C111.3 170.854 113.1 170.854 115 170.754C118.6 170.654 121.9 171.554 125.2 172.754C127.8 173.754 129.3 175.954 130.7 178.154C131.9 180.054 131.1 182.554 129.2 183.954C128.2 184.654 127.1 185.054 126 185.454C124.8 185.854 123.5 186.154 122.2 186.354C119.5 186.754 117.3 187.954 115.3 189.854C114.7 190.454 114.1 191.154 113.4 191.554C111.9 192.554 111.3 194.054 111.5 195.754C111.5 195.954 111.5 196.154 111.5 196.454C112.5 202.854 115.8 207.754 121.6 210.854C122.7 211.454 123.7 211.254 124.7 210.554C125.2 210.154 125.7 209.654 126.2 209.254C128.7 207.054 131.7 205.754 135.1 205.454C137.8 205.154 140.5 204.954 143.2 205.354C147.4 205.954 150.8 207.854 153.4 211.254C153.9 211.854 154.3 212.454 154.8 213.054C154.9 213.154 155 213.154 155.3 213.354C157.4 212.954 159.8 212.554 162.1 212.054C172 210.154 181.6 207.354 191 203.854C195.1 202.354 199.1 200.554 202.9 198.354C208.6 195.154 214.4 192.054 220.1 188.854C224.9 186.254 229.4 183.154 233.6 179.754C239.8 174.654 246 169.454 252.2 164.254C256.4 160.754 260.1 156.754 263.8 152.754C268.2 147.954 272.7 143.154 277.2 138.354C281.2 134.054 285.2 129.754 289.1 125.354C293.9 119.854 299 114.654 304.8 110.054C312.7 103.854 320.7 97.7543 329 92.1543C343.3 82.4543 358.9 76.1542 375.6 71.9542C384.7 69.6542 394 68.5542 403.4 68.1542C410.8 67.8542 418.2 68.8542 425.5 70.2542C429.9 71.0542 434.3 71.8542 438.7 72.4542C443.9 73.1542 448.9 72.5542 453.6 70.0542C455 69.2542 456.6 68.7542 458.1 68.0542C462.4 66.0542 465.8 63.0543 468.1 58.9543C468.5 58.2543 468.8 57.6543 469.3 56.9543C470.9 54.6543 471.5 52.0542 471.7 49.2542C472 43.9542 472.7 38.6542 473.3 33.2542C473.6 29.8542 474 26.5543 474.3 22.9543C473.6 22.8543 472.9 22.6542 472.4 22.6542C465.8 23.5542 460.4 26.5543 456.5 31.9543C455.2 33.7543 454.4 35.7543 454 37.9543C453.4 41.5543 453.6 44.9543 456 47.8543C456.3 48.2543 456.6 48.7542 456.9 49.2542C455.3 50.6542 453.6 50.9543 451.7 50.4543C449.8 49.9543 448.5 48.7542 447.3 47.2542C444.9 44.2542 443.3 40.9542 442.9 37.1542C442.4 33.2542 442 29.3543 442.7 25.4543C445.1 12.0543 454.2 0.954249 469.3 0.0542486C475.9 -0.345751 482.1 1.45425 487.2 5.85425C487.4 6.05425 487.7 6.25425 487.9 6.45425C488 6.55425 488.1 6.55425 488.4 6.75425C489.2 6.25425 490.1 5.75425 491.1 5.25425C499.5 1.05425 508 0.254248 516.6 4.35425C520.6 6.25425 523.9 9.05425 526.6 12.6542C530.6 17.9542 533.2 23.8542 534.2 30.5542C534.5 32.7542 534.4 34.8542 533.8 37.0542C532.1 42.6542 529.6 47.8542 525.7 52.2542C524.3 53.1542 523.1 54.4542 521.1 55.5542ZM813.6 257.454C812.2 257.954 812.2 258.754 812 259.454C810.7 263.654 809.4 267.754 808.1 271.954C804.3 283.354 800.6 294.754 797.6 306.354C794.7 317.254 791.6 327.954 788.3 338.754C784.9 349.754 781.8 360.954 778.4 371.954C768.4 403.754 758.5 435.654 748.3 467.354C742.7 484.754 737.9 502.454 733.4 520.154C733.2 520.854 732.8 521.654 733.7 522.454C734.7 522.454 735.8 522.454 737 522.454C751.3 522.354 765.6 522.354 779.8 523.054C782 523.154 784.2 523.054 786.3 523.054C792 522.954 797.6 522.854 803.3 522.754C806.9 522.654 810.5 522.754 814.1 522.654C814.7 522.654 815.3 522.454 816 522.254C816 521.154 816.1 520.354 816.1 519.454C816.3 510.754 816.5 502.054 816.7 493.254C816.9 486.954 817 480.654 816.7 474.254C816.3 466.754 816 459.254 815.7 451.754C815.4 444.454 815.1 437.154 814.9 429.854C814.5 417.854 814.1 405.854 813.8 393.854C813.5 381.054 813.3 368.354 813.2 355.554C813.1 339.554 812.9 323.454 813 307.454C813.1 292.054 813.4 276.654 813.6 261.354C813.6 260.254 813.6 259.054 813.6 257.454ZM130.8 250.354C129.9 250.954 129.9 251.754 129.6 252.354C127.3 258.254 125.2 264.254 122.8 270.054C118.8 279.754 115.2 289.554 111.8 299.454C108.2 310.054 104.4 320.654 100.7 331.254C97.8 339.454 94.9 347.654 92 355.954C88.9 364.854 85.7 373.854 82.6 382.754C80.1 389.754 77.5 396.654 75.3 403.754C68.8 424.254 61.5 444.454 54.6 464.754C49.9 478.454 44.8 492.054 39.9 505.654C39.6 506.354 39.5 507.054 39.2 508.154C65.3 506.254 91.2 506.554 117.3 507.354C117.7 503.454 118.1 499.854 118.5 496.154C119.5 487.454 120.3 478.754 121.5 470.154C122.9 459.654 123.5 449.054 123.8 438.554C124.2 424.354 124.5 410.254 124.8 396.054C125.1 382.654 125.5 369.254 125.9 355.854C126 351.554 126.1 347.354 126.2 343.054C126.5 334.954 126.8 326.954 127.1 318.854C127.3 313.154 127.4 307.554 127.6 301.854C127.9 294.654 128.3 287.454 128.6 280.254C128.8 276.154 128.9 271.954 129.3 267.854C129.7 262.854 130.4 257.854 130.9 252.854C130.8 252.054 130.8 251.254 130.8 250.354ZM201.5 511.654C201.4 510.954 201.3 510.554 201.2 510.154C198.6 499.354 196.7 488.354 194.9 477.354C193.4 467.854 191.8 458.454 189.3 449.154C187.8 443.554 186.5 437.954 185.2 432.354C181 414.254 176.8 396.254 172.7 378.154C169.8 365.754 167.1 353.254 164.2 340.854C161.5 329.254 158.7 317.754 156 306.154C154 297.354 152.3 288.454 150.3 279.654C148.4 271.354 146.1 263.154 144.8 254.754C144.5 252.954 144.1 251.154 143.7 249.254C143.5 248.254 143.2 248.154 141.6 248.554C141.5 249.154 141.4 249.754 141.3 250.454C141 257.854 140.6 265.254 140.3 272.654C140 279.454 140 286.154 139.7 292.954C139.2 302.354 138.6 311.654 138.5 321.054C138.5 322.954 138.3 324.754 138.2 326.654C137.9 331.854 137.5 337.054 137.3 342.354C136.8 354.354 136.4 366.354 135.9 378.354C135.8 381.454 135.5 384.454 135.4 387.454C134.6 404.054 133.9 420.554 133.2 437.154C133 441.054 132.6 444.954 132.3 448.854C131.8 454.854 131.3 460.854 130.7 466.754C130 473.954 129.2 481.054 128.4 488.254C127.8 493.354 127 498.454 126.4 503.454C126.2 504.854 125.9 506.254 126.5 507.854C127.3 507.954 128.1 508.054 129 508.154C136.2 508.354 143.4 508.554 150.6 508.854C159 509.254 167.4 509.854 175.7 510.354C183.9 510.854 192 511.354 200.2 511.854C200.5 511.854 200.8 511.754 201.5 511.654ZM823.3 259.554C823.3 260.854 823.3 261.954 823.3 263.054C823.5 274.254 823.8 285.554 823.9 296.754C824 303.654 823.8 310.454 823.8 317.354C823.8 333.054 823.8 348.754 823.9 364.454C824 382.554 824 400.654 824.1 418.754C824.2 426.254 824.6 433.754 824.7 441.254C824.8 448.354 824.8 455.454 824.8 462.554C824.9 473.854 824.9 485.254 825 496.554C825 503.954 825.1 511.354 825.2 518.854C825.2 519.954 825 521.254 825.8 522.454C827.4 522.454 829.1 522.454 830.7 522.454C837.2 522.354 843.8 522.254 850.3 522.254C858.3 522.254 866.2 522.354 874.2 522.354C876.6 522.354 879 522.254 881.4 522.154C882 522.154 882.6 521.854 883.3 521.654C882.3 518.354 881.4 515.154 880.5 512.054C878 503.154 876.1 494.054 874.2 484.954C871.6 472.454 869.2 459.954 867.2 447.354C866.3 441.754 865.5 436.154 864.3 430.654C859.9 409.754 855.3 388.854 850.9 367.954C848.9 358.554 847.1 349.154 845.1 339.754C843.3 331.354 841.4 322.954 839.7 314.454C837.9 305.454 836.3 296.454 834.6 287.454C833 278.854 831.4 270.354 829.7 261.754C829.5 260.754 829.6 259.554 828.7 258.654C827.1 259.054 825.4 259.254 823.3 259.554Z" fill="#56A8E1"/>
</svg>
