<?xml version="1.0" encoding="utf-8"?>
<!-- Generator: Adobe Illustrator 26.0.1, SVG Export Plug-In . SVG Version: 6.00 Build 0)  -->
<svg version="1.1" id="Слой_1__x28_копия_x29_"
	 xmlns="http://www.w3.org/2000/svg" xmlns:xlink="http://www.w3.org/1999/xlink" x="0px" y="0px" viewBox="0 0 960.4 960.4"
	 style="enable-background:new 0 0 960.4 960.4;" xml:space="preserve">
<style type="text/css">
	.st0{fill:#606060;}
</style>
<path class="st0" d="M529.9,102c0-2.2,0-4,0-5.7c-0.1-4.7-1.2-9-3.3-13.2c-2.6-5.3-6.9-8.6-12.3-10.6c-1.7-0.6-3.4-0.6-5.1,0.4
	c-0.5,1.8-0.8,3.8-0.9,5.7c-0.2,7.1-0.5,14.2-0.5,21.3c0,2.4,0.5,4.8,1.1,7.1c1.2,4.5,4.1,7.6,8.6,9.1c3.8,1.3,7.7,1.6,11.6,1.8
	c5.2,0.2,10.5,0,15.7,0.1c3.2,0.1,6.3,0.2,9.5,0.4c7,0.5,13.9,1.1,20.9,1.6c5.5,0.4,11.1,0.7,16.6,1.4c2.5,0.3,4.9,1.2,7.3,1.8
	c9.8,2.6,19.6,5.2,29.2,8.4c7.4,2.5,14.6,5.6,21.5,9.4c2.2,1.2,4.4,2.5,6.6,3.7c9.2,4.8,17.1,11.3,24.5,18.5
	c4.6,4.5,9,9.2,13.4,13.9c1,1.1,1.9,2.4,2.9,3.6c4.5,5.9,8.6,12.1,12,18.7c2.3,4.5,5,8.7,7.5,13c0.7,1.2,1.3,2.5,1.8,3.8
	c2,5.3,4.6,10.4,7.7,15.1c1.7,2.7,3.5,5.3,5.1,8c5.5,8.9,13.4,15.1,22.9,19.4c6.2,2.8,12.7,4.5,19.3,6c6.9,1.5,13.9,2.5,21,2.8
	c4.8,0.2,9.6,0.6,14.4,0.9c1.8,0.1,3.7,0,5.7,0c0.6-0.7,1.3-1.4,1.9-2.1c1.6-1.8,3.5-2.9,6-2.9c1.7,0,3.5-0.2,5.2-0.7
	c3.7-0.9,7.2-0.5,10.5,1c1.7,0.8,3.3,0.8,5,0.3c4.1-1.2,8.1-2.5,11.9-4.6c3.6-2,6.5-4.8,8.3-8.6c1.9-3.9,1.5-4.9-2.6-6.7
	c-3.1-1.4-6.4-2-9.8-2.5c-1.7-0.3-3.5-0.4-5.2-0.7c-4.4-0.8-6.6-4.7-5-8.8c1-2.6,2.9-4.6,5.2-6.1c1.2-0.7,2.5-1.4,3.9-1.8
	c11.5-2.9,22.1-0.9,31.5,6.4c6.5,5,8.8,12,8.5,20c-0.2,4.9-1.5,9.5-3.7,13.8c-4.4,8.5-9.9,16.2-17.5,22.1
	c-4.8,3.7-10.1,6.4-15.7,8.7c-3.9,1.6-3.9,1.6-6.6,5.6c0.9,3.7,1.8,7.5,2.6,11.3c2.2,10.9,4.4,21.8,6.4,32.7
	c2.1,11.7,4.5,23.3,6.9,35c2,9.7,3.8,19.5,5.7,29.2c1.5,7.6,3.1,15.2,4.6,22.8c2.2,11.2,4.4,22.5,6.6,33.7
	c4.4,21.9,8.6,43.9,13.2,65.7c2.3,11.3,4.8,22.6,7.8,33.8c0.3,1,0.6,2.1,0.9,3.1c1.2,0.6,2.5,0.3,3.6,0.4c7.4,0.2,14.8,0.2,22.2,0.6
	c4.2,0.2,8.3,0.1,12.4-0.5c2.5-0.4,4.8,1,5.7,3.5c0.5,1.3,0.7,2.7,0.9,4.1c0.5,4.2,0.1,8.3-0.9,12.4c-2,8.9-4.2,17.8-7.2,26.5
	c-4.3,12.3-11,23.2-19.8,32.8c-8.5,9.2-18.3,16.8-29.1,23.1c-0.5,0.3-1,0.5-1.4,0.8c-5.5,4-11.8,6.6-18.1,9.1
	c-2.3,0.9-4.7,1.7-7.2,2.3c-6.7,1.6-13.4,3.2-20.2,4c-0.6,0.1-1.3,0.2-2,0.2c-3.4,0.3-6.8,0.4-10.1,0.8c-6.3,0.8-12.6,0.7-19,0.4
	c-11.1-0.4-21.9-2.2-32.4-5.8c-9.5-3.2-18.7-7.3-27.1-12.9c-11.4-7.6-20.9-17.2-28.4-28.6c-2.4-3.7-4.7-7.6-7-11.4
	c-0.9-1.5-1.7-3.1-2.3-4.7c-1.4-3.7-3.3-7.1-5.5-10.4c-4.6-6.9-7.2-14.6-8.9-22.7c-0.2-0.7-0.3-1.5-0.3-2.3c-0.1-2-0.4-3.9-1-5.8
	c-0.7-2.3-0.7-4.7-0.2-7.1c0.7-4,2.2-5.4,6.2-5.9c2.5-0.3,5-0.5,7.5-0.8c3.6-0.4,7.2-0.8,10.7-1.1c2.9-0.2,5.9-0.3,8.8-0.4
	c1.1,0,2.2-0.1,3.2-0.1c1-1.1,1-2.5,1.3-3.8c3.6-14.4,7.2-28.8,10.9-43.1c4.5-17.2,9.5-34.3,15.6-51c3.7-10.1,6.3-20.4,9.4-30.6
	c7.2-24.3,14.4-48.7,21.5-73.1c2.4-8.2,4.3-16.5,6.6-24.6c3.8-13.5,8.4-26.8,13-40.1c0.4-1.1,1-2.2,0.8-3.5
	c-2.3-0.3-4.6-0.6-6.8-0.8c-7.6-0.8-15.1-2.3-22.5-4.2c-18.7-4.9-36.1-13-52.2-23.5c-7.3-4.7-13.8-10.3-19.3-17
	c-3.1-3.8-6.6-7.3-9.9-10.9c-3.9-4.3-7.8-8.5-11.6-12.9c-4.1-4.7-8.3-9.2-12.9-13.4c-5.6-5.1-11.1-10.2-16.7-15.3
	c-4-3.7-8.4-6.9-13.1-9.7c-7.8-4.6-15.4-9.5-22.8-14.7c-11.2-7.9-23.6-13.1-37-15.9c-5.2-1.1-10.5-1.8-15.9-2.1
	c-8.1-0.6-16.1-0.5-24.2-0.4c-0.5,0-1.1,0-1.6,0c-6.3,0.8-12.6,0.7-19,0.7c-3.3,0-6.5,0.5-9.7,1.4c-1.5,0.4-2.3,1.2-2.5,2.7
	c-0.1,0.9-0.3,1.7-0.4,2.6c-0.6,4.2-1.1,8.4-1.7,12.6c-0.6,5-1.3,10-1.7,14.9c-0.4,4.7-0.8,9.3-1,14c-0.1,3.5,0.2,7,0.4,10.5
	c0.1,1.4,0.6,2.7,1.8,3.7c7.6,6.2,11.9,14.6,15.2,23.6c0.8,2.4,1.5,4.8,2.2,7.2c1.7,6,1.3,11.8-0.7,17.7c-1.7,5-4.1,9.6-6.4,14.3
	c-1.5,3-3,6.1-4.5,9.1c-2.2,4.4-3.2,9-3.6,13.9c-0.7,9.5-1.5,18.9-2.3,28.4c-0.6,6.8-0.6,13.5,0,20.3c0.5,5.5,0.8,11.1,1,16.7
	c0.3,8.1,0.9,16.1,2,24.1c0.8,6.4,1.7,12.8,2.4,19.1c0.4,3.4,1.2,6.6,2.6,9.8c3,6.7,6,13.3,8.9,20c1.8,4.2,3.4,8.5,5,12.8
	c2.9,7.8,4.1,15.8,4,24.1c0,4.8,0,9.6-0.2,14.4c-0.3,7.9-1.7,15.6-4.2,23.1c-1.3,3.9-3.1,7.7-5.5,11.1c-1,1.4-1.9,2.9-3,4.3
	c-3.7,4.9-6.3,10.4-8.2,16.3c-1.6,4.8-3.1,9.6-4.6,14.3c-1.4,4.3-2,8.7-2.6,13.1c-0.9,6.8-1.4,13.7-1.5,20.5
	c-0.1,4.9-0.4,9.8-0.7,14.7c-0.5,7.7,0.1,15.3,1,22.8c0.4,3.2,1,6.5,1,9.8c0.1,5.5,2.3,10.1,5.2,14.5c4,6,8.3,11.7,12.9,17.3
	c3.1,3.7,6,7.5,9,11.2c1.1,1.4,2.1,2.8,3,4.3c2.3,3.9,2.5,7.9,0.8,12.2c-2.9,7.3-7.6,13.2-12.7,18.9c-0.6,0.7-1.5,1.3-2.3,1.8
	c-7.5,4.9-11.1,12.1-12.1,20.8c-0.7,6.2-0.6,12.4-0.3,18.6c0.5,10.5,1.6,20.9,2.9,31.3c0.5,3.7,1.2,7.3,2.5,10.8
	c0.9,2.6,2.1,5,4.4,6.7c1.3,1,2.2,2.4,3.4,3.5c3,2.6,6,5.1,9.3,7.2c1,0.6,2.1,1.2,3.2,1.6c9.9,4.1,19.2,9.3,27.6,16.1
	c0.7,0.6,1.4,1.1,2.1,1.6c10.2,6.8,18.7,15.4,26.3,24.8c4.1,5,7.9,10.2,11.1,15.8c4.5,8,7.1,16.6,8.3,25.7c0.9,7.2,1,14.3,0.4,21.5
	c-0.1,1,0,2,0,2.9c-0.1,0.7-0.2,1.5-0.4,2.2c-0.2,0.4-0.7,0.9-1.2,1c-0.8,0.2-1.7,0.1-2.6,0.2c-18.3,0.7-36.7,0.6-55,0.6
	c-51.9,0.1-103.9,0.3-155.8,0.3c-18,0-36-0.3-54-0.6c-5.5-0.1-10.9-0.4-16.4-0.6c-0.6,0-1.3-0.2-2-0.3c-0.5-1.2-0.3-2.4-0.3-3.6
	c0.3-10.8,2.2-21.4,4.7-32c2.7-11.2,7.6-21.3,14.8-30.3c3.2-4,6.6-7.8,10-11.7c2.1-2.5,4.3-4.9,6.6-7.3c2.3-2.4,4.6-5,7.2-7.1
	c12.9-10.7,27.4-18.6,43.3-23.8c1.3-0.4,2.8-0.6,4.1-1c3.2-0.8,6.3-1.7,8.9-3.8c2-1.6,3.9-3.2,5.7-4.9c2.2-2,3.6-4.4,4.1-7.3
	c0.9-5.2,2.3-10.2,2.5-15.5c0.2-3.9,0.3-7.8,0.3-11.8c-0.1-6.7-0.3-13.3-0.5-20c-0.2-6.6-1.5-13-3.9-19.1c-1.7-4.2-4-8-7.3-11.2
	c-1.5-1.4-3-2.9-4.5-4.3c-4.3-4-8.4-8.2-12.1-12.8c-0.8-1-1.6-2.1-2.3-3.2c-1.5-2.6-1.8-5.4-0.7-8.2c0.6-1.5,1.3-3,2.2-4.4
	c3.2-5.1,6.9-9.8,11.1-14.1c3.7-3.7,7.3-7.5,11-11.2c3.8-3.9,7.4-8,10.4-12.6c4.2-6.5,6.8-13.6,8.6-21.1c1.4-5.6,2-11.4,2.6-17.1
	c0.8-8.6,1.6-17.2,2.3-25.8c0.3-4.2,0.4-8.5,0.4-12.7c0-3.1-0.8-6-1.6-9c-1.5-5.6-3-11.2-4.6-16.7c-0.9-3.2-2-6.5-3.3-9.6
	c-3.1-7.3-5.7-14.9-8.1-22.4c-1.2-3.8-2.6-7.6-4.2-11.3c-3.1-7.1-4.8-14.5-4.9-22.2c-0.1-3.4-0.1-6.8-0.1-10.1c0-4.1,0.6-8.1,1.5-12
	c2-8,4.7-15.7,8.8-22.8c2.6-4.5,5.1-9.1,7.9-13.6c3.8-6.1,6.5-12.6,8.1-19.6c2.5-11,3.9-22.1,4-33.4c0.1-6.5,0.5-13.1,0.6-19.6
	c0.1-6.3,0.2-12.7-0.1-19c-0.5-9.9-1.2-19.8-2-29.7c-0.4-4.4-0.9-8.9-2-13.3c-1.2-4.8-2.7-9.6-5.2-14c-1.6-2.7-3-5.6-4.1-8.5
	c-2.6-6.6-3-13.3-1.4-20.2c0.9-3.9,2.1-7.8,3.9-11.4c0.4-0.9,0.8-1.8,1.2-2.7c3.1-7.1,7.3-13.4,13.3-18.4c0.3-0.3,0.6-0.6,1-0.8
	c1-0.7,1.3-1.6,1.5-2.8c0.5-3.6,1.1-7.1,1.7-10.7c1-6.6,2.1-13.1,3.1-19.7c0.2-1.6,0.4-3.3,0.4-4.9c0-7.2,0-14.4-0.1-21.6
	c0-0.8-0.1-1.5-0.2-2.4c-0.7-0.4-1.3-0.8-2-1.1c-4.9-2.2-10.1-3.6-15.4-4.4c-6.8-1.1-13.6-1.8-20.5-1.4c-4,0.3-8,0.7-12,1.3
	c-9.6,1.4-19.1,3.5-28.3,6.6c-7.9,2.6-15.2,6.5-22.4,10.7c-4.5,2.7-9.1,5.3-13.7,7.7c-6,3.2-11.8,6.7-17.3,10.5
	c-9.3,6.5-18.7,12.8-28,19.4c-5.3,3.8-10.4,7.9-15.5,12c-5.3,4.3-10.8,8.5-16.4,12.4c-4.5,3.1-8.9,6.3-13.3,9.6
	c-11,8.5-22.9,15.2-35.7,20.3c-9,3.6-18,7.2-27.1,10.6c-11.9,4.5-24.2,7.4-36.7,9.1c-0.2,0-0.4,0.1-0.8,0.2c-0.8,1.2-1.6,2.7-2.5,4
	c-0.9,1.3-2,2.6-3.2,4c0.2,0.6,0.4,1.3,0.6,2.1c2.2,7.4,4.4,14.8,6.5,22.3c2.8,10,4.8,20.2,6.9,30.3c2.7,12.6,5.7,25.1,8.4,37.7
	c2.1,9.4,3.9,18.8,6,28.2c2.2,10,4.5,20,6.6,30c1.6,7.8,3,15.6,4.6,23.4c2.1,10.2,4.5,20.5,6.6,30.7c3,14.4,5.9,28.8,8.6,43.3
	c1.1,5.7,1.5,11.5,2.3,17.2c0.1,1.1,0.3,2.1,0.5,3.4c0.8,0.1,1.6,0.2,2.3,0.3c6,0.3,12,0.5,18,0.8c1,0,2,0.2,2.9,0.3
	c1.5,0.2,2.7,0.8,3.7,1.9c0.2,0.3,0.4,0.6,0.6,0.7c2.1,1.3,2.5,3.1,2.1,5.4c-0.8,5.6-1.3,11.3-3,16.7c-2,6.4-4.8,12.4-8.5,18
	c-1.3,2-2.5,4.1-3.6,6.2c-3.3,6.8-7.4,13.1-11.5,19.4c-2.6,3.9-5.1,7.9-8,11.6c-6.1,7.7-13.6,13.8-21.7,19.2
	c-4.2,2.8-8.8,4.7-13.5,6.5c-7,2.6-14.1,4.5-21.4,6.1c-4.6,1.1-9.2,2-13.8,2.7c-2.8,0.5-5.6,0.7-8.5,0.9c-9,0.6-17.9-0.1-26.7-1.5
	c-4.5-0.7-9.1-1.4-13.5-2.3c-2.5-0.5-5.1-1.3-7.5-2.3c-9.5-3.9-18.8-8.3-27-14.6c-2.8-2.1-5.6-4.1-8.5-6.1
	c-5.6-3.9-10.2-8.9-14.2-14.4c-2-2.7-4.1-5.4-6.3-8c-2.9-3.4-5.5-7-7.7-10.9c-1.4-2.5-2.8-5-4.2-7.4c-3.6-6.2-5.6-13-6.6-20.1
	c-0.5-3.7-1.1-7.3-2.2-10.9c-1.1-3.5-1.8-7.2-1.9-10.9c0-1.4,0.1-2.8,0.3-4.2c0.3-1.3,1.1-2.4,2.5-2.7c2.5-0.6,5.1-1.2,7.7-1.5
	c6-0.7,11.9-1.3,17.9-1.9c0.8-0.1,1.5-0.2,2.3-0.3c0.2-0.6,0.5-1,0.7-1.5c3-11.4,7-22.5,11.3-33.4c4-10.1,7.1-20.4,10.1-30.7
	c2.9-9.8,6.3-19.5,9.1-29.4c4.3-14.9,9.1-29.6,14.1-44.2c2.9-8.6,5.4-17.3,8.2-25.9c2.4-7.3,5-14.4,7.5-21.6
	c3.7-11,7.3-21.9,10.9-32.9c3.2-9.5,7-18.8,10.6-28.1c2.5-6.6,4.8-13.3,7.1-20c0.2-0.6,0.2-1.2,0.3-1.9c-2.3-0.3-4.4-0.5-6.6-0.8
	c-5.3-0.7-10.4-2.4-15.3-4.4c-5-2.1-8.8-5.6-11.9-9.9c-1-1.4-1.6-3.1-2-4.8c-1.4-5-1.7-10.1-1.8-15.2c0-4.3,0.2-8.5,0.5-12.7
	c0.1-1.5,0.5-3.1,1.2-4.4c5.1-10.1,13.3-15.6,24.7-15.9c1.9,0,3.7,0,5.6-0.1c3.6-0.1,6.9,0.8,10.2,2c2.6,1,4.1,3.2,5.5,5.4
	c1.2,1.9,0.4,4.4-1.5,5.8c-1,0.7-2.1,1.1-3.2,1.5c-1.2,0.4-2.5,0.7-3.8,0.9c-2.7,0.4-4.9,1.6-6.9,3.5c-0.6,0.6-1.2,1.3-1.9,1.7
	c-1.5,1-2.1,2.5-1.9,4.2c0,0.2,0,0.4,0,0.7c1,6.4,4.3,11.3,10.1,14.4c1.1,0.6,2.1,0.4,3.1-0.3c0.5-0.4,1-0.9,1.5-1.3
	c2.5-2.2,5.5-3.5,8.9-3.8c2.7-0.3,5.4-0.5,8.1-0.1c4.2,0.6,7.6,2.5,10.2,5.9c0.5,0.6,0.9,1.2,1.4,1.8c0.1,0.1,0.2,0.1,0.5,0.3
	c2.1-0.4,4.5-0.8,6.8-1.3c9.9-1.9,19.5-4.7,28.9-8.2c4.1-1.5,8.1-3.3,11.9-5.5c5.7-3.2,11.5-6.3,17.2-9.5c4.8-2.6,9.3-5.7,13.5-9.1
	c6.2-5.1,12.4-10.3,18.6-15.5c4.2-3.5,7.9-7.5,11.6-11.5c4.4-4.8,8.9-9.6,13.4-14.4c4-4.3,8-8.6,11.9-13c4.8-5.5,9.9-10.7,15.7-15.3
	c7.9-6.2,15.9-12.3,24.2-17.9c14.3-9.7,29.9-16,46.6-20.2c9.1-2.3,18.4-3.4,27.8-3.8c7.4-0.3,14.8,0.7,22.1,2.1
	c4.4,0.8,8.8,1.6,13.2,2.2c5.2,0.7,10.2,0.1,14.9-2.4c1.4-0.8,3-1.3,4.5-2c4.3-2,7.7-5,10-9.1c0.4-0.7,0.7-1.3,1.2-2
	c1.6-2.3,2.2-4.9,2.4-7.7c0.3-5.3,1-10.6,1.6-16c0.3-3.4,0.7-6.7,1-10.3c-0.7-0.1-1.4-0.3-1.9-0.3c-6.6,0.9-12,3.9-15.9,9.3
	c-1.3,1.8-2.1,3.8-2.5,6c-0.6,3.6-0.4,7,2,9.9c0.3,0.4,0.6,0.9,0.9,1.4c-1.6,1.4-3.3,1.7-5.2,1.2c-1.9-0.5-3.2-1.7-4.4-3.2
	c-2.4-3-4-6.3-4.4-10.1c-0.5-3.9-0.9-7.8-0.2-11.7c2.4-13.4,11.5-24.5,26.6-25.4c6.6-0.4,12.8,1.4,17.9,5.8c0.2,0.2,0.5,0.4,0.7,0.6
	c0.1,0.1,0.2,0.1,0.5,0.3c0.8-0.5,1.7-1,2.7-1.5c8.4-4.2,16.9-5,25.5-0.9c4,1.9,7.3,4.7,10,8.3c4,5.3,6.6,11.2,7.6,17.9
	c0.3,2.2,0.2,4.3-0.4,6.5c-1.7,5.6-4.2,10.8-8.1,15.2C533.1,99.6,531.9,100.9,529.9,102z M822.4,303.9c-1.4,0.5-1.4,1.3-1.6,2
	c-1.3,4.2-2.6,8.3-3.9,12.5c-3.8,11.4-7.5,22.8-10.5,34.4c-2.9,10.9-6,21.6-9.3,32.4c-3.4,11-6.5,22.2-9.9,33.2
	c-10,31.8-19.9,63.7-30.1,95.4c-5.6,17.4-10.4,35.1-14.9,52.8c-0.2,0.7-0.6,1.5,0.3,2.3c1,0,2.1,0,3.3,0c14.3-0.1,28.6-0.1,42.8,0.6
	c2.2,0.1,4.4,0,6.5,0c5.7-0.1,11.3-0.2,17-0.3c3.6-0.1,7.2,0,10.8-0.1c0.6,0,1.2-0.2,1.9-0.4c0-1.1,0.1-1.9,0.1-2.8
	c0.2-8.7,0.4-17.4,0.6-26.2c0.2-6.3,0.3-12.6,0-19c-0.4-7.5-0.7-15-1-22.5c-0.3-7.3-0.6-14.6-0.8-21.9c-0.4-12-0.8-24-1.1-36
	c-0.3-12.8-0.5-25.5-0.6-38.3c-0.1-16-0.3-32.1-0.2-48.1c0.1-15.4,0.4-30.8,0.6-46.1C822.4,306.7,822.4,305.5,822.4,303.9z
	 M139.6,296.8c-0.9,0.6-0.9,1.4-1.2,2c-2.3,5.9-4.4,11.9-6.8,17.7c-4,9.7-7.6,19.5-11,29.4c-3.6,10.6-7.4,21.2-11.1,31.8
	c-2.9,8.2-5.8,16.4-8.7,24.7c-3.1,8.9-6.3,17.9-9.4,26.8c-2.5,7-5.1,13.9-7.3,21c-6.5,20.5-13.8,40.7-20.7,61
	c-4.7,13.7-9.8,27.3-14.7,40.9c-0.3,0.7-0.4,1.4-0.7,2.5c26.1-1.9,52-1.6,78.1-0.8c0.4-3.9,0.8-7.5,1.2-11.2c1-8.7,1.8-17.4,3-26
	c1.4-10.5,2-21.1,2.3-31.6c0.4-14.2,0.7-28.3,1-42.5c0.3-13.4,0.7-26.8,1.1-40.2c0.1-4.3,0.2-8.5,0.3-12.8
	c0.3-8.1,0.6-16.1,0.9-24.2c0.2-5.7,0.3-11.3,0.5-17c0.3-7.2,0.7-14.4,1-21.6c0.2-4.1,0.3-8.3,0.7-12.4c0.4-5,1.1-10,1.6-15
	C139.6,298.5,139.6,297.7,139.6,296.8z M210.3,558.1c-0.1-0.7-0.2-1.1-0.3-1.5c-2.6-10.8-4.5-21.8-6.3-32.8
	c-1.5-9.5-3.1-18.9-5.6-28.2c-1.5-5.6-2.8-11.2-4.1-16.8c-4.2-18.1-8.4-36.1-12.5-54.2c-2.9-12.4-5.6-24.9-8.5-37.3
	c-2.7-11.6-5.5-23.1-8.2-34.7c-2-8.8-3.7-17.7-5.7-26.5c-1.9-8.3-4.2-16.5-5.5-24.9c-0.3-1.8-0.7-3.6-1.1-5.5
	c-0.2-1-0.5-1.1-2.1-0.7c-0.1,0.6-0.2,1.2-0.3,1.9c-0.3,7.4-0.7,14.8-1,22.2c-0.3,6.8-0.3,13.5-0.6,20.3c-0.5,9.4-1.1,18.7-1.2,28.1
	c0,1.9-0.2,3.7-0.3,5.6c-0.3,5.2-0.7,10.4-0.9,15.7c-0.5,12-0.9,24-1.4,36c-0.1,3.1-0.4,6.1-0.5,9.1c-0.8,16.6-1.5,33.1-2.2,49.7
	c-0.2,3.9-0.6,7.8-0.9,11.7c-0.5,6-1,12-1.6,17.9c-0.7,7.2-1.5,14.3-2.3,21.5c-0.6,5.1-1.4,10.2-2,15.2c-0.2,1.4-0.5,2.8,0.1,4.4
	c0.8,0.1,1.6,0.2,2.5,0.3c7.2,0.2,14.4,0.4,21.6,0.7c8.4,0.4,16.8,1,25.1,1.5c8.2,0.5,16.3,1,24.5,1.5
	C209.3,558.3,209.6,558.2,210.3,558.1z M832.1,306c0,1.3,0,2.4,0,3.5c0.2,11.2,0.5,22.5,0.6,33.7c0.1,6.9-0.1,13.7-0.1,20.6
	c0,15.7,0,31.4,0.1,47.1c0.1,18.1,0.1,36.2,0.2,54.3c0.1,7.5,0.5,15,0.6,22.5c0.1,7.1,0.1,14.2,0.1,21.3c0.1,11.3,0.1,22.7,0.2,34
	c0,7.4,0.1,14.8,0.2,22.3c0,1.1-0.2,2.4,0.6,3.6c1.6,0,3.3,0,4.9,0c6.5-0.1,13.1-0.2,19.6-0.2c8,0,15.9,0.1,23.9,0.1
	c2.4,0,4.8-0.1,7.2-0.2c0.6,0,1.2-0.3,1.9-0.5c-1-3.3-1.9-6.5-2.8-9.6c-2.5-8.9-4.4-18-6.3-27.1c-2.6-12.5-5-25-7-37.6
	c-0.9-5.6-1.7-11.2-2.9-16.7c-4.4-20.9-9-41.8-13.4-62.7c-2-9.4-3.8-18.8-5.8-28.2c-1.8-8.4-3.7-16.8-5.4-25.3c-1.8-9-3.4-18-5.1-27
	c-1.6-8.6-3.2-17.1-4.9-25.7c-0.2-1-0.1-2.2-1-3.1C835.9,305.5,834.2,305.7,832.1,306z"/>
</svg>
